<svg xmlns="http://www.w3.org/2000/svg" viewBox="0 0 404.73 404.73"><title>Asset 2</title><g id="Layer_2" data-name="Layer 2"><g id="Layer_1-2" data-name="Layer 1"><path d="M202.37,0C90.68,0,0,90.68,0,202.36S90.68,404.73,202.37,404.73s202.36-90.68,202.36-202.37S314.05,0,202.37,0Zm-6.18,337.55a22.06,22.06,0,1,1,22.46-21.66A22.07,22.07,0,0,1,196.19,337.55Zm88-108c-1.47,0-2.92-.07-4.37-.18a37.13,37.13,0,0,1-41.6,14.59,37.08,37.08,0,0,1-54.55,27.13,37.1,37.1,0,0,1-70.74-9.28,61.3,61.3,0,0,1,3.67-121.23,58.14,58.14,0,0,1,88.67-44.48,58.11,58.11,0,0,1,90,18.2,58.16,58.16,0,0,1-11.11,115.25Z"/></g></g></svg>